<svg width="22" height="16" viewBox="0 0 22 16" fill="none" xmlns="http://www.w3.org/2000/svg">
<g filter="url(#filter0_d_1_400)">
<path d="M17.9694 8.02704C17.969 7.60133 17.7997 7.19319 17.4986 6.89217C17.1976 6.59115 16.7895 6.42184 16.3638 6.42139C15.9739 6.42093 15.5975 6.5634 15.3056 6.82182C14.2437 6.14231 12.8268 5.71423 11.2641 5.66795L12.2204 2.39741L14.5682 2.83367C14.5682 2.85286 14.5643 2.87092 14.5654 2.89011C14.5794 3.15874 14.6994 3.41085 14.8991 3.59114C15.0987 3.77143 15.3617 3.86517 15.6304 3.8518C15.899 3.83771 16.151 3.71769 16.3312 3.51805C16.5115 3.31841 16.6052 3.05545 16.5918 2.78683C16.5778 2.51819 16.4578 2.26608 16.2581 2.08579C16.0585 1.90551 15.7955 1.81176 15.5268 1.82513C15.3557 1.83424 15.1896 1.88666 15.0443 1.97748C14.8989 2.06829 14.779 2.19453 14.6958 2.34436L14.6949 2.34407L11.8657 1.81836L10.7389 5.66739C9.17225 5.70887 7.75087 6.13469 6.68449 6.81279C6.39385 6.55988 6.02143 6.42084 5.63616 6.42139C5.21048 6.42192 4.80238 6.59125 4.50138 6.89225C4.20037 7.19326 4.03104 7.60135 4.03052 8.02704C4.03052 8.57448 4.31242 9.07959 4.769 9.3742C4.74046 9.53537 4.72583 9.6987 4.72526 9.86238C4.72526 12.1797 7.53472 14.0653 10.9881 14.0653C14.4415 14.0653 17.2504 12.1797 17.2504 9.8621C17.2504 9.70182 17.2357 9.54379 17.2095 9.38802C17.4413 9.24435 17.6326 9.044 17.7655 8.80589C17.8984 8.56777 17.9688 8.29973 17.9694 8.02704ZM8.01161 9.11966C8.01165 8.99009 8.03721 8.8618 8.08682 8.74211C8.13644 8.62241 8.20915 8.51366 8.3008 8.42207C8.39245 8.33047 8.50124 8.25783 8.62096 8.20828C8.74068 8.15873 8.86899 8.13324 8.99856 8.13328C9.12813 8.13332 9.25643 8.15887 9.37612 8.20849C9.49581 8.25811 9.60456 8.33082 9.69616 8.42247C9.78775 8.51411 9.8604 8.6229 9.90995 8.74263C9.9595 8.86235 9.98498 8.99066 9.98494 9.12023C9.98487 9.38191 9.88085 9.63284 9.69576 9.81783C9.51067 10.0028 9.25968 10.1067 8.998 10.1066C8.73632 10.1065 8.48538 10.0025 8.3004 9.81743C8.11542 9.63234 8.01154 9.38135 8.01161 9.11966ZM13.3139 11.7886C13.2846 11.8191 12.5765 12.5395 10.9765 12.5395C9.36808 12.5395 8.7247 11.8092 8.69845 11.7781C8.65777 11.7272 8.6384 11.6624 8.64441 11.5975C8.65042 11.5326 8.68134 11.4725 8.73069 11.4299C8.78004 11.3872 8.84398 11.3654 8.9091 11.3688C8.97422 11.3723 9.03546 11.4009 9.07997 11.4486C9.09464 11.4644 9.63136 12.0352 10.9763 12.0352C12.3449 12.0352 12.9448 11.444 12.951 11.4384C12.9984 11.3951 13.0606 11.3714 13.1248 11.3723C13.189 11.3731 13.2505 11.3984 13.2967 11.443C13.343 11.4876 13.3705 11.5481 13.3737 11.6122C13.3769 11.6764 13.3555 11.7396 13.3139 11.7886ZM13.1178 10.1065C12.9882 10.1065 12.8599 10.0811 12.7402 10.0315C12.6205 9.98201 12.5117 9.90939 12.4201 9.81783C12.3284 9.72626 12.2557 9.61753 12.2061 9.49787C12.1565 9.3782 12.1309 9.24992 12.1308 9.12037C12.1308 8.99082 12.1562 8.86252 12.2058 8.74281C12.2553 8.6231 12.3279 8.51431 12.4195 8.42267C12.5111 8.33102 12.6198 8.25831 12.7394 8.20868C12.8591 8.15905 12.9874 8.13348 13.1169 8.13342C13.3786 8.13331 13.6296 8.23714 13.8146 8.42207C13.9997 8.607 14.1038 8.85788 14.1039 9.11952C14.104 9.38117 14.0002 9.63214 13.8152 9.81723C13.6303 10.0023 13.3794 10.1064 13.1178 10.1065Z" fill="black"/>
</g>
<defs>
<filter id="filter0_d_1_400" x="-1" y="0" width="24" height="24" filterUnits="userSpaceOnUse" color-interpolation-filters="sRGB">
<feFlood flood-opacity="0" result="BackgroundImageFix"/>
<feColorMatrix in="SourceAlpha" type="matrix" values="0 0 0 0 0 0 0 0 0 0 0 0 0 0 0 0 0 0 127 0" result="hardAlpha"/>
<feOffset dy="4"/>
<feGaussianBlur stdDeviation="2"/>
<feComposite in2="hardAlpha" operator="out"/>
<feColorMatrix type="matrix" values="0 0 0 0 0 0 0 0 0 0 0 0 0 0 0 0 0 0 0.25 0"/>
<feBlend mode="normal" in2="BackgroundImageFix" result="effect1_dropShadow_1_400"/>
<feBlend mode="normal" in="SourceGraphic" in2="effect1_dropShadow_1_400" result="shape"/>
</filter>
</defs>
</svg>
